<mxfile host="app.diagrams.net" agent="Mozilla/5.0 (Windows NT 10.0; Win64; x64) AppleWebKit/537.36 (KHTML, like Gecko) Chrome/133.0.0.0 Safari/537.36" version="26.0.16">
  <diagram name="Page-1" id="1jxEetcsP1XhnHTp4yE3">
    <mxGraphModel dx="1802" dy="810" grid="1" gridSize="10" guides="1" tooltips="1" connect="1" arrows="1" fold="1" page="1" pageScale="1" pageWidth="827" pageHeight="1169" math="0" shadow="0">
      <root>
        <mxCell id="0" />
        <mxCell id="1" parent="0" />
        <mxCell id="HqnO-PJnkSd6teYi4c3O-1" value="Linux Kernel" style="rounded=0;whiteSpace=wrap;html=1;" vertex="1" parent="1">
          <mxGeometry x="260" y="570" width="330" height="50" as="geometry" />
        </mxCell>
        <mxCell id="HqnO-PJnkSd6teYi4c3O-2" value="Native Daemons &amp;amp; Libraries" style="rounded=1;whiteSpace=wrap;html=1;" vertex="1" parent="1">
          <mxGeometry x="260" y="500" width="330" height="60" as="geometry" />
        </mxCell>
        <mxCell id="HqnO-PJnkSd6teYi4c3O-3" value="Hardware Abstraction Layer (HAL)" style="rounded=1;whiteSpace=wrap;html=1;" vertex="1" parent="1">
          <mxGeometry x="260" y="450" width="320" height="40" as="geometry" />
        </mxCell>
        <mxCell id="HqnO-PJnkSd6teYi4c3O-4" value="Android Runtime" style="rounded=1;whiteSpace=wrap;html=1;" vertex="1" parent="1">
          <mxGeometry x="260" y="410" width="320" height="30" as="geometry" />
        </mxCell>
        <mxCell id="HqnO-PJnkSd6teYi4c3O-5" value="System Services" style="rounded=1;whiteSpace=wrap;html=1;" vertex="1" parent="1">
          <mxGeometry x="260" y="360" width="320" height="40" as="geometry" />
        </mxCell>
        <mxCell id="HqnO-PJnkSd6teYi4c3O-6" value="Android Framework" style="rounded=1;whiteSpace=wrap;html=1;" vertex="1" parent="1">
          <mxGeometry x="260" y="280" width="320" height="60" as="geometry" />
        </mxCell>
        <mxCell id="HqnO-PJnkSd6teYi4c3O-7" value="Android APIs" style="rounded=0;whiteSpace=wrap;html=1;" vertex="1" parent="1">
          <mxGeometry x="300" y="220" width="170" height="40" as="geometry" />
        </mxCell>
        <mxCell id="HqnO-PJnkSd6teYi4c3O-8" value="System APIs" style="rounded=0;whiteSpace=wrap;html=1;" vertex="1" parent="1">
          <mxGeometry x="480" y="220" width="80" height="40" as="geometry" />
        </mxCell>
        <mxCell id="HqnO-PJnkSd6teYi4c3O-9" value="Android Apps" style="rounded=0;whiteSpace=wrap;html=1;" vertex="1" parent="1">
          <mxGeometry x="324" y="140" width="90" height="20" as="geometry" />
        </mxCell>
        <mxCell id="HqnO-PJnkSd6teYi4c3O-10" value="Priviledged Apps" style="rounded=0;whiteSpace=wrap;html=1;" vertex="1" parent="1">
          <mxGeometry x="430" y="140" width="100" height="20" as="geometry" />
        </mxCell>
        <mxCell id="HqnO-PJnkSd6teYi4c3O-11" value="" style="shape=flexArrow;endArrow=classic;startArrow=classic;html=1;rounded=0;startWidth=10;startSize=3.8;endWidth=10;endSize=3.8;" edge="1" parent="1">
          <mxGeometry width="100" height="100" relative="1" as="geometry">
            <mxPoint x="510" y="220" as="sourcePoint" />
            <mxPoint x="510" y="160" as="targetPoint" />
            <Array as="points">
              <mxPoint x="510" y="180" />
            </Array>
          </mxGeometry>
        </mxCell>
        <mxCell id="HqnO-PJnkSd6teYi4c3O-12" value="" style="shape=flexArrow;endArrow=classic;startArrow=classic;html=1;rounded=0;startWidth=10;startSize=3.8;endWidth=10;endSize=3.8;" edge="1" parent="1">
          <mxGeometry width="100" height="100" relative="1" as="geometry">
            <mxPoint x="460" y="220" as="sourcePoint" />
            <mxPoint x="460" y="160" as="targetPoint" />
            <Array as="points">
              <mxPoint x="460" y="200" />
              <mxPoint x="460" y="180" />
            </Array>
          </mxGeometry>
        </mxCell>
        <mxCell id="HqnO-PJnkSd6teYi4c3O-13" value="" style="shape=flexArrow;endArrow=classic;startArrow=classic;html=1;rounded=0;startWidth=10;startSize=3.8;endWidth=10;endSize=3.8;" edge="1" parent="1">
          <mxGeometry width="100" height="100" relative="1" as="geometry">
            <mxPoint x="368.5" y="220" as="sourcePoint" />
            <mxPoint x="368.5" y="160" as="targetPoint" />
            <Array as="points">
              <mxPoint x="368.5" y="200" />
              <mxPoint x="368.5" y="180" />
            </Array>
          </mxGeometry>
        </mxCell>
        <mxCell id="HqnO-PJnkSd6teYi4c3O-14" value="" style="shape=flexArrow;endArrow=classic;startArrow=classic;html=1;rounded=0;startWidth=10;startSize=3.8;endWidth=10;endSize=3.8;exitX=0.75;exitY=0;exitDx=0;exitDy=0;" edge="1" parent="1">
          <mxGeometry width="100" height="100" relative="1" as="geometry">
            <mxPoint x="550" y="220" as="sourcePoint" />
            <mxPoint x="550" y="110" as="targetPoint" />
            <Array as="points">
              <mxPoint x="550" y="160" />
            </Array>
          </mxGeometry>
        </mxCell>
        <mxCell id="HqnO-PJnkSd6teYi4c3O-15" value="Device Manufacturer Apps" style="rounded=0;whiteSpace=wrap;html=1;" vertex="1" parent="1">
          <mxGeometry x="260" y="90" width="310" height="20" as="geometry" />
        </mxCell>
        <mxCell id="HqnO-PJnkSd6teYi4c3O-16" value="" style="shape=flexArrow;endArrow=classic;startArrow=classic;html=1;rounded=0;startWidth=10;startSize=3.8;endWidth=10;endSize=3.8;entryX=0.947;entryY=1.16;entryDx=0;entryDy=0;entryPerimeter=0;exitX=0.75;exitY=0;exitDx=0;exitDy=0;" edge="1" parent="1">
          <mxGeometry width="100" height="100" relative="1" as="geometry">
            <mxPoint x="311" y="217" as="sourcePoint" />
            <mxPoint x="310" y="110" as="targetPoint" />
            <Array as="points">
              <mxPoint x="311" y="157" />
            </Array>
          </mxGeometry>
        </mxCell>
        <mxCell id="HqnO-PJnkSd6teYi4c3O-17" value="" style="shape=flexArrow;endArrow=classic;startArrow=classic;html=1;rounded=0;startWidth=10;startSize=3.8;endWidth=10;endSize=3.8;exitX=0.034;exitY=-0.033;exitDx=0;exitDy=0;exitPerimeter=0;" edge="1" parent="1" source="HqnO-PJnkSd6teYi4c3O-6">
          <mxGeometry width="100" height="100" relative="1" as="geometry">
            <mxPoint x="270.1199999999999" y="270.0000000000001" as="sourcePoint" />
            <mxPoint x="270" y="110" as="targetPoint" />
            <Array as="points">
              <mxPoint x="270" y="153.6" />
            </Array>
          </mxGeometry>
        </mxCell>
      </root>
    </mxGraphModel>
  </diagram>
</mxfile>
